<svg xmlns="http://www.w3.org/2000/svg" viewBox="0 0 295.996 295.996">
  <path d="M147.998 0C66.392 0 0 66.392 0 147.998s66.392 147.998 147.998 147.998 147.998-66.392 147.998-147.998S229.606 0 147.998 0zm0 279.996c-36.256 0-69.143-14.696-93.022-38.44-9.536-9.482-17.63-20.41-23.934-32.42C21.442 190.846 16 170.048 16 147.998 16 75.214 75.214 16 147.998 16c34.523 0 65.987 13.328 89.533 35.102 12.21 11.288 22.29 24.844 29.56 39.997 8.27 17.237 12.906 36.536 12.906 56.898 0 72.784-59.214 131.998-131.998 131.998z" fill="#fff"/>
  <path d="M107.102 148.953l29.253-29.255L107.1 90.445 95.79 101.76l17.94 17.938-17.94 17.94M200.207 137.64l-17.94-17.942 17.94-17.938-11.313-11.315-29.255 29.253 29.253 29.255M230.28 164.997H65.714c0 45.443 36.84 82.283 82.283 82.283s82.28-36.84 82.28-82.283zm-18.283 16h.165c-7.176 28.846-33.213 50.283-64.246 50.283-31.035 0-57.073-21.438-64.25-50.283h128.33z" fill="#fff"/>
</svg>
