<svg height="32" version="1" viewBox="0 0 32 32" width="32" xmlns="http://www.w3.org/2000/svg"><path d="M16 24.188c-1.625 0-3.104-.438-4.438-1.312-1.334-.875-2.334-2-3-3.375L2 8c-1.375 2.46-2 5.21-2 8 0 4 1.302 7.49 3.906 10.47 2.604 2.978 5.844 4.76 9.72 5.343l4.64-8.03c-.467.136-1.246.405-2.266.405z" fill="#4AAE48"/><path d="M10.97 9.53C12.446 8.387 14.124 8 16 8h13.75c-1.417-2.416-3.344-4.458-5.78-5.875C21.53.71 18.874 0 16 0c-2.5 0-4.834.53-7 1.594-2.167 1.062-4.172 2.61-5.64 4.594L8 14c.458-1.79 1.49-3.322 2.97-4.47z" fill="#EA3939"/><path d="M30.797 10H21.5c1.625 1.625 2.688 3.71 2.688 6 0 1.71-.48 3.27-1.438 4.688L16.188 32c4.375-.042 8.104-1.625 11.188-4.75C30.458 24.125 32 20.375 32 16c0-2.04-.344-4.188-1.203-6z" fill="#FED14B"/><circle cx="16" cy="16" fill="#188FD1" r="6"/></svg>