<svg xmlns="http://www.w3.org/2000/svg" viewBox="0 0 202.209 202.209">
  <g fill="#fff">
    <path d="M162.603 0v13.7H39.653V3.16h-.015V0H5.548v202.21h34.036v-3.158h.072v-11.445h122.948v11.445h.047v3.157h34.01V0h-34.057zm0 20.017V97.18H39.653V20.017h122.95zM11.863 6.32h21.465v189.568h-6.846v-7.68h-8.95v7.68h-5.67V6.32zm27.79 174.967v-77.783H162.6v77.783H39.652zm150.69 14.598h-6.023v-7.68h-8.944v7.68h-6.463V6.32h21.427v189.565h.003z"/><path d="M17.53 13.163h8.952v17.375h-8.95zM17.53 45.552h8.952v17.375h-8.95zM17.53 82.968h8.952v17.372h-8.95zM17.53 118.406h8.952v17.38h-8.95zM17.53 150.795h8.952v17.372h-8.95zM175.376 13.163h8.944v17.375h-8.944zM175.376 45.552h8.944v17.375h-8.944zM175.376 82.968h8.944v17.372h-8.944zM175.376 118.406h8.944v17.38h-8.944zM175.376 150.795h8.944v17.372h-8.944z"/>
  </g>
</svg>
