<svg xmlns="http://www.w3.org/2000/svg" width="95.448" height="95.448" viewBox="0 0 95.448 95.448">
  <path d="M47.724 30.68c-4.71 0-8.542 3.832-8.542 8.542s3.832 8.542 8.542 8.542 8.542-3.832 8.542-8.542-3.83-8.542-8.542-8.542z" fill="#1BA2F9"/>
  <path d="M92.79 10.928H2.66c-1.467 0-2.66 1.193-2.66 2.66v51.27c0 1.467 1.193 2.66 2.66 2.66h90.13c1.465 0 2.658-1.193 2.658-2.66v-51.27c0-1.467-1.193-2.66-2.66-2.66zM76.6 40.568c-.525.58-13.043 14.22-28.877 14.22-15.835 0-28.352-13.64-28.877-14.22-.69-.765-.69-1.927 0-2.69.525-.58 13.042-14.22 28.877-14.22 15.834 0 28.352 13.64 28.877 14.22.69.763.69 1.926 0 2.69zM64.396 74.13h-5.35v-2.888H36.4v2.89h-5.35c-1.38 0-2.5 1.118-2.5 2.5v5.388c0 1.38 1.12 2.5 2.5 2.5h33.344c1.38 0 2.5-1.12 2.5-2.5v-5.39c0-1.38-1.12-2.5-2.5-2.5z" stroke="rgba(255, 255, 255, 1)"/>
</svg>
