<svg xmlns="http://www.w3.org/2000/svg" viewBox="0 0 525.152 525.152"><path d="M420.735 371.217c-20.02 0-37.942 7.855-51.596 20.24L181.11 282.094c1.357-6.06 2.407-12.166 2.407-18.468s-1.073-12.385-2.408-18.468l185.904-108.335c14.18 13.13 32.93 21.334 53.72 21.334 43.827 0 79.144-35.25 79.144-79.08C499.88 35.338 464.54 0 420.735 0c-43.74 0-79.08 35.338-79.08 79.057 0 6.39 1.073 12.385 2.408 18.468L158.158 205.947c-14.2-13.194-32.93-21.378-53.74-21.378-43.83 0-79.146 35.316-79.146 79.056s35.317 79.08 79.145 79.08c20.787 0 39.54-8.207 53.72-21.335l187.697 109.605c-1.29 5.58-2.1 11.4-2.1 17.2 0 42.45 34.593 76.978 76.978 76.978 42.428 0 77.044-34.507 77.044-76.98s-34.593-76.956-77.02-76.956z" fill="#fff"/></svg>
