<svg xmlns="http://www.w3.org/2000/svg" width="29.336" height="29.335" viewBox="0 0 29.336 29.335">
  <g fill="#fff">
    <path d="M29.25 10.203c-.407-1.998-.147-6.182-7.064-7.284-5.51-.88-10.58 1.17-11.625 5.913l6.957-.038v1.14l6.263-.03 2.51 2.784c.52.572-.676 1.048-1.164.616-.49-.433-1.784-1.98-1.784-1.98l-11.43.01.04 3.18h-1.57v-.725c-.646 1.32-2.427 2.902-1.877 3.508.667.732 1.798.763 1.798.763s-.735 1.397-.404 1.785c.33.387 1.25.222 1.25.222s-.854.615-.854 1.093c0 .48 1.442 1.114 1.442 1.114s-.265 2.646 1.903 2.463 2.534-.796 2.534-.796l.644 2.676h8.39l-.294-5.812c-.006-.005 5.147-5.597 4.335-10.6zm-15.5 3.533c-.562 0-1.02-.456-1.02-1.02 0-.564.457-1.02 1.02-1.02s1.49 1.02 1.49 1.02-.928 1.02-1.49 1.02zm9.207 2.805c-.504.518-1.186.78-1.98.78-.098 0-.193-.003-.296-.01l.047-.563c.754.062 1.385-.146 1.827-.602.556-.563.798-1.495.685-2.618-.064-.653-.395-.976-.943-.954-.787.027-1.704.727-1.722 1.31l-.564-.017c.028-.958 1.272-1.82 2.27-1.855.86-.03 1.433.517 1.523 1.462.126 1.294-.174 2.383-.846 3.07z"/>
    <path d="M8.517 9.795h1.94v3.9h-1.94zM4.373 9.967l-.434-.462c-.895.835-1.406 2.018-1.406 3.24 0 1.226.513 2.406 1.407 3.242l.435-.464c-.768-.716-1.207-1.73-1.207-2.778 0-1.064.428-2.05 1.205-2.778z" fill="#1BA2F9"/>
    <path d="M2.59 8.178l-.44-.46C.764 9.05 0 10.836 0 12.745c0 1.91.765 3.694 2.15 5.025l.44-.458C1.327 16.102.632 14.48.632 12.744c0-1.735.696-3.357 1.958-4.566z"/>
    <path d="M3.476 9.07l-.436-.46c-1.145 1.087-1.774 2.556-1.774 4.135 0 1.58.632 3.05 1.777 4.138l.436-.46c-1.02-.968-1.58-2.27-1.58-3.678 0-1.403.56-2.71 1.576-3.676zM5.752 11.285c-.435.364-.684.896-.684 1.46 0 .563.248 1.096.683 1.457l.408-.485c-.58-.483-.58-1.46 0-1.944l-.406-.488z"/><path d="M5.267 10.866l-.426-.468c-.66.6-1.04 1.455-1.04 2.347 0 .895.38 1.748 1.042 2.35l.426-.47c-.528-.48-.833-1.165-.833-1.88 0-.714.304-1.397.832-1.88z"/>
    <circle cx="7.144" cy="12.716" r=".73"/>
  </g>
</svg>
