<svg xmlns="http://www.w3.org/2000/svg" width="478.2" height="478.2" viewBox="0 0 478.2 478.2">
  <path d="M306 172.1c0-10.5 8.6-19.1 19.1-19.1s19.1 8.6 19.1 19.1-8.6 19.1-19.1 19.1-19.1-8.6-19.1-19.1zm-153 19.1c10.5 0 19.1-8.6 19.1-19.1S163.5 153 153 153s-19.1 8.6-19.1 19.1 8.6 19.1 19.1 19.1zm325.2 47.9c0 132-107.1 239.1-239.1 239.1S0 371.1 0 239.1 107.1 0 239.1 0C371 0 478.2 107.1 478.2 239.1zm-19.2 0c0-122.4-97.5-219.9-219.9-219.9S19.2 116.7 19.2 239.1 116.7 459 239.1 459 459 361.5 459 239.1zM95.6 286.8h286.9s-19.1 114.8-143.4 114.8c-124.4 0-143.5-114.7-143.5-114.8zM355.7 306H120.5s24.9 76.5 118.6 76.5c93.7 0 116.6-76.5 116.6-76.5z" fill="#fff"/>
</svg>
