<svg xmlns="http://www.w3.org/2000/svg" viewBox="0 0 470 470">
  <path d="M432.5 227.5h-77.03c-.612-37.438-5.783-73.616-14.772-105.694h50.518c4.143 0 7.5-3.357 7.5-7.5s-3.357-7.5-7.5-7.5h-55.112c-8.018-24.165-18.316-45.52-30.553-62.656-2.407-3.37-7.092-4.153-10.46-1.745-3.372 2.407-4.153 7.092-1.746 10.462 10.618 14.868 19.688 33.2 26.965 53.94H242.5V37.5c0-4.143-3.357-7.5-7.5-7.5s-7.5 3.357-7.5 7.5v69.306h-77.81c7.277-20.74 16.347-39.07 26.965-53.94 2.407-3.37 1.626-8.054-1.745-10.46-3.372-2.408-8.055-1.626-10.462 1.744-12.237 17.135-22.535 38.492-30.553 62.656H78.783c-4.143 0-7.5 3.357-7.5 7.5s3.357 7.5 7.5 7.5H129.3c-8.987 32.078-14.158 68.256-14.77 105.694H37.5c-4.143 0-7.5 3.357-7.5 7.5s3.357 7.5 7.5 7.5h77.03c.612 37.438 5.783 73.616 14.772 105.694h-50.52c-4.142 0-7.5 3.357-7.5 7.5s3.358 7.5 7.5 7.5h55.113c8.02 24.17 18.32 45.53 30.56 62.666 1.464 2.05 3.77 3.142 6.11 3.142 1.508 0 3.03-.454 4.353-1.397 3.37-2.408 4.15-7.092 1.744-10.463-10.62-14.87-19.693-33.204-26.972-53.947h77.81V432.5c0 4.143 3.357 7.5 7.5 7.5s7.5-3.357 7.5-7.5v-69.306h77.81c-7.278 20.744-16.35 39.078-26.972 53.947-2.407 3.372-1.626 8.056 1.744 10.464 1.32.943 2.844 1.397 4.353 1.397 2.34 0 4.646-1.092 6.11-3.14 12.24-17.138 22.54-38.498 30.56-62.667h55.112c4.143 0 7.5-3.357 7.5-7.5s-3.357-7.5-7.5-7.5h-50.52c8.99-32.078 14.16-68.256 14.772-105.694h77.03c4.143 0 7.5-3.358 7.5-7.5s-3.357-7.5-7.5-7.5zM325.14 121.806c9.313 31.683 14.695 67.958 15.326 105.694H242.5V121.806h82.64zm-180.28 0h82.64V227.5h-97.966c.632-37.737 6.013-74.01 15.326-105.694zm0 226.388c-9.313-31.683-14.695-67.958-15.326-105.694H227.5v105.694h-82.64zm180.28 0H242.5V242.5h97.966c-.632 37.737-6.013 74.012-15.326 105.694z" fill="#1BA2F9"/>
  <path d="M401.17 68.83C356.784 24.444 297.77 0 235 0S113.216 24.444 68.83 68.83 0 172.23 0 235c0 46.272 13.39 90.9 38.764 129.317l-28.718 86.148c-.898 2.695-.197 5.667 1.812 7.676 2.01 2.01 4.98 2.71 7.676 1.813l86.15-28.716C144.102 456.61 188.73 470 235 470c62.77 0 121.784-24.444 166.17-68.83S470 297.77 470 235c0-62.77-24.444-121.784-68.83-166.17zM235 455c-44.49 0-87.355-13.222-123.96-38.235-1.263-.862-2.74-1.308-4.232-1.308-.797 0-1.598.127-2.372.385L29.02 440.98l25.14-75.415c.74-2.225.4-4.668-.923-6.604C28.222 322.358 15 279.493 15 235c0-121.308 98.69-220 220-220s220 98.692 220 220c0 121.31-98.69 220-220 220z" fill="#fff"/>
</svg>
